<?xml version="1.0" encoding="UTF-8"?> <svg xmlns="http://www.w3.org/2000/svg" width="100" height="100" viewBox="0 0 100 100"><g id="ba0b9187-9e7b-4a44-b514-e525226eac69" data-name="MicroStation"><g id="a4965d17-1867-45fa-9984-806fa81f659a" data-name="White Highlights"><path d="M99.11,2.35c-3.84.89-12.63.9-14.86,4.71L82,10.83c-5.63,9.61-19.78,45.3-33.49,45.76S55.72,12.75,57.8,8.31c-8.51,2-16.69.79-19.75,9.52-3.17,9.05-6.3,18.11-9.67,27.09-7,18.55-15.53,36.38-27.15,52.25.26-.35.52-.7-.34.48,8.64-1.73,16.49-1.44,21.67-9.22,4.79-7.2,7.86-15.27,11.1-23.25l1.54-3.79,1.24,1.17c12.35,11.64,21.83,0,31.5-9.08l1.43-1.34,5.41,20.37,12-12.87c-1-1.8-2-3.64-2.92-5.49l-.15-.33C75.79,36.67,89.29,17,98.54,3.21Z" style="fill:#fff"></path></g></g></svg> 